<?xml version="1.0" standalone="no"?>
<!DOCTYPE svg PUBLIC "-//W3C//DTD SVG 20010904//EN"
 "http://www.w3.org/TR/2001/REC-SVG-20010904/DTD/svg10.dtd">
<svg version="1.0" xmlns="http://www.w3.org/2000/svg"
 width="1280.000000pt" height="999.000000pt" viewBox="0 0 1280.000000 999.000000"
 preserveAspectRatio="xMidYMid meet">
<metadata>
Created by potrace 1.15, written by Peter Selinger 2001-2017
</metadata>
<g transform="translate(0.000000,999.000000) scale(0.100000,-0.100000)"
fill="#FFCC03" stroke="#000000">
<path d="M7870 9982 c-38 -18 -80 -66 -470 -542 -228 -278 -435 -531 -462
-563 l-47 -57 -85 172 c-192 393 -461 881 -513 934 -35 35 -85 51 -128 40 -68
-17 -109 -87 -431 -734 -114 -227 -209 -412 -213 -410 -3 2 -230 236 -504 520
-526 546 -522 543 -595 527 -48 -10 -78 -43 -92 -97 -10 -40 -110 -526 -198
-960 -15 -73 -31 -133 -36 -133 -4 0 -190 203 -413 453 -504 564 -479 539
-534 545 -55 5 -104 -23 -123 -70 -9 -22 -17 -151 -25 -415 -12 -365 -33 -748
-42 -757 -5 -5 -567 284 -1071 551 -306 163 -380 198 -411 197 -45 -1 -84 -26
-111 -72 -23 -39 -36 27 144 -716 180 -743 172 -705 149 -705 -30 0 -410 62
-961 157 -498 85 -508 86 -543 70 -39 -18 -75 -69 -75 -105 0 -12 6 -37 14
-55 13 -32 87 -93 1043 -851 84 -66 151 -122 149 -123 -2 -2 -270 -95 -597
-207 -327 -111 -608 -210 -625 -219 -33 -17 -64 -70 -64 -109 0 -40 35 -83
122 -150 45 -35 184 -143 308 -238 217 -167 567 -447 640 -510 l35 -30 -60
-56 c-33 -31 -252 -227 -486 -436 -235 -208 -431 -390 -438 -404 -27 -60 2
-144 57 -165 31 -13 145 -12 917 5 303 6 551 11 552 11 2 -1 -89 -73 -792
-629 -264 -208 -517 -410 -562 -448 -129 -107 -157 -156 -128 -224 35 -83 90
-96 260 -59 144 31 1295 322 1429 362 16 4 12 -4 -16 -43 -19 -27 -122 -177
-228 -334 -106 -157 -335 -492 -508 -744 -173 -253 -320 -472 -326 -488 -15
-41 10 -106 53 -135 39 -26 80 -29 120 -9 15 8 239 164 497 347 828 587 1346
950 1349 947 2 -2 -14 -69 -36 -148 -49 -176 -64 -232 -140 -518 -33 -122 -84
-314 -115 -425 -60 -219 -63 -260 -23 -303 32 -34 89 -50 128 -36 17 6 176
130 353 275 664 542 743 604 750 593 4 -6 8 -33 8 -61 0 -122 53 -782 66 -812
15 -39 67 -73 109 -73 17 0 45 9 63 20 17 11 178 137 357 280 179 143 330 259
337 258 7 -2 12 2 13 7 1 16 15 35 26 35 6 0 7 -6 3 -12 -5 -9 -2 -8 9 1 10 8
15 16 12 19 -7 7 25 42 38 42 6 0 2 -10 -9 -22 -17 -21 -16 -21 9 1 29 26 35
37 15 25 -7 -4 -4 2 6 14 23 26 44 30 25 5 -11 -15 -10 -14 9 1 24 21 29 31
10 20 -7 -4 -4 2 6 14 23 26 44 30 25 5 -11 -15 -10 -14 9 1 24 21 29 31 10
20 -7 -4 -4 2 6 14 23 26 44 30 25 5 -11 -15 -9 -14 9 1 12 11 20 21 17 24 -7
7 25 42 38 42 5 0 3 -8 -4 -17 -13 -16 -12 -17 4 -4 9 8 15 16 12 19 -7 7 25
42 38 42 6 0 2 -10 -9 -22 -17 -21 -16 -21 9 1 28 26 36 37 15 25 -8 -5 -8 -2
1 10 8 9 22 21 32 27 15 8 22 3 39 -30 24 -48 26 -62 4 -35 -14 18 -15 18 -4
-4 6 -12 15 -20 19 -17 8 4 256 -424 545 -942 60 -107 121 -204 138 -218 44
-37 106 -35 152 6 33 29 46 62 227 607 105 317 193 579 195 581 6 7 34 -21 29
-29 -3 -4 3 -14 13 -21 15 -13 16 -12 3 4 -7 9 -9 17 -4 17 16 0 44 -36 36
-45 -5 -4 -2 -5 5 -1 7 5 129 -82 325 -230 171 -131 327 -246 345 -257 56 -33
135 -8 167 52 14 28 47 211 145 811 23 140 43 256 44 257 6 6 46 -29 41 -37
-3 -4 3 -14 13 -21 15 -13 16 -12 3 3 -7 10 -9 18 -3 18 15 0 33 -26 24 -35
-4 -5 -2 -5 5 -2 11 7 271 -185 1058 -783 220 -167 414 -312 430 -322 44 -27
107 -24 144 7 35 30 55 82 45 121 -4 16 -182 449 -396 963 -214 514 -386 941
-384 948 3 8 2 12 -3 9 -4 -3 -24 32 -43 77 l-34 82 206 -46 c206 -47 392 -89
765 -174 1174 -269 1300 -297 1335 -291 51 8 100 66 100 119 0 21 -7 51 -16
65 -9 15 -204 190 -433 389 -229 199 -502 437 -608 530 l-191 168 1216 8 c862
6 1225 11 1246 19 84 33 88 174 5 218 -10 6 -335 107 -721 226 -387 118 -782
240 -878 271 -96 30 -276 86 -400 124 -274 85 -259 80 -240 87 8 3 303 132
655 287 1411 622 1337 586 1350 659 8 42 -15 99 -50 122 -17 11 -193 53 -444
106 -545 115 -1205 257 -1259 272 l-44 11 22 28 c12 15 25 25 29 22 5 -2 17 5
27 18 l19 22 -22 -19 c-13 -11 -23 -15 -23 -9 0 13 35 45 42 38 3 -3 13 5 24
17 l19 23 -22 -19 c-13 -11 -23 -15 -23 -9 0 13 35 45 42 38 3 -3 11 2 19 12
9 11 10 14 2 9 -7 -4 -13 -3 -13 2 0 12 25 33 32 27 2 -3 5 1 5 8 0 12 366
480 594 759 48 59 92 123 99 142 25 76 -34 156 -115 156 -24 0 -151 -16 -282
-35 -130 -20 -366 -54 -523 -76 -394 -55 -490 -69 -527 -75 l-33 -6 44 123
c98 277 244 680 343 949 58 157 107 303 110 325 8 80 -70 149 -147 128 -19 -5
-258 -155 -530 -333 -448 -292 -690 -449 -807 -523 l-41 -26 -141 567 c-77
312 -147 600 -157 641 -21 93 -59 140 -119 146 -22 3 -47 1 -55 -3z"/>
<path d="M9478 8023 c6 -2 18 -2 25 0 6 3 1 5 -13 5 -14 0 -19 -2 -12 -5z"/>
<path d="M9423 8013 c9 -2 23 -2 30 0 6 3 -1 5 -18 5 -16 0 -22 -2 -12 -5z"/>
<path d="M10028 6913 c6 -2 18 -2 25 0 6 3 1 5 -13 5 -14 0 -19 -2 -12 -5z"/>
<path d="M10090 6900 c14 -4 34 -8 45 -8 16 0 15 2 -5 8 -14 4 -34 8 -45 8
-16 0 -15 -2 5 -8z"/>
<path d="M10810 5900 c-9 -6 -10 -10 -3 -10 6 0 15 5 18 10 8 12 4 12 -15 0z"/>
<path d="M10705 5855 c-27 -13 -45 -23 -40 -24 6 0 33 11 60 24 28 13 46 23
40 24 -5 0 -32 -11 -60 -24z"/>
<path d="M10590 5805 c-14 -8 -20 -14 -15 -14 6 0 21 6 35 14 14 8 21 14 15
14 -5 0 -21 -6 -35 -14z"/>
<path d="M10515 5771 c-22 -11 -37 -20 -34 -20 10 -1 79 29 79 34 0 7 0 7 -45
-14z"/>
<path d="M10410 5725 c-14 -8 -20 -14 -15 -14 6 0 21 6 35 14 14 8 21 14 15
14 -5 0 -21 -6 -35 -14z"/>
<path d="M10263 5662 c-57 -25 -101 -47 -99 -49 4 -4 206 83 215 92 11 12 -22
0 -116 -43z"/>
<path d="M10090 5585 c-14 -8 -20 -14 -15 -14 6 0 21 6 35 14 14 8 21 14 15
14 -5 0 -21 -6 -35 -14z"/>
<path d="M10015 5551 c-22 -11 -37 -20 -34 -20 10 -1 79 29 79 34 0 7 0 7 -45
-14z"/>
<path d="M9910 5505 c-14 -8 -20 -14 -15 -14 6 0 21 6 35 14 14 8 21 14 15 14
-5 0 -21 -6 -35 -14z"/>
<path d="M9850 5480 c-8 -5 -10 -10 -5 -10 6 0 17 5 25 10 8 5 11 10 5 10 -5
0 -17 -5 -25 -10z"/>
<path d="M9806 5461 c-19 -7 -18 -8 4 -14 13 -3 26 -4 29 -2 2 3 -1 5 -8 5 -7
0 -9 5 -6 10 7 11 7 11 -19 1z"/>
<path d="M9865 5430 c27 -12 43 -12 25 0 -8 5 -22 9 -30 9 -10 0 -8 -3 5 -9z"/>
<path d="M9570 4496 c0 -2 8 -10 17 -17 10 -8 14 -9 10 -2 -5 9 8 13 45 16
l53 3 -62 2 c-35 1 -63 0 -63 -2z"/>
<path d="M8406 3715 c4 -8 8 -15 10 -15 2 0 4 7 4 15 0 8 -4 15 -10 15 -5 0
-7 -7 -4 -15z"/>
<path d="M8438 3713 c7 -3 16 -2 19 1 4 3 -2 6 -13 5 -11 0 -14 -3 -6 -6z"/>
<path d="M8478 3703 c7 -3 16 -2 19 1 4 3 -2 6 -13 5 -11 0 -14 -3 -6 -6z"/>
<path d="M7485 2664 c-8 -47 -2 -52 11 -8 6 19 8 37 4 39 -4 3 -11 -11 -15
-31z"/>
<path d="M7465 2545 c-3 -26 -4 -49 -2 -51 3 -3 8 16 12 41 3 26 4 49 2 51 -3
3 -8 -16 -12 -41z"/>
<path d="M7445 2425 c-3 -26 -4 -49 -2 -51 3 -3 8 16 12 41 3 26 4 49 2 51 -3
3 -8 -16 -12 -41z"/>
<path d="M7432 2325 c0 -16 2 -22 5 -12 2 9 2 23 0 30 -3 6 -5 -1 -5 -18z"/>
<path d="M7422 2270 c0 -14 2 -19 5 -12 2 6 2 18 0 25 -3 6 -5 1 -5 -13z"/>
<path d="M7412 2200 c0 -14 2 -19 5 -12 2 6 2 18 0 25 -3 6 -5 1 -5 -13z"/>
<path d="M5055 2190 c-3 -6 1 -7 9 -4 18 7 21 14 7 14 -6 0 -13 -4 -16 -10z"/>
<path d="M7402 2150 c0 -14 2 -19 5 -12 2 6 2 18 0 25 -3 6 -5 1 -5 -13z"/>
<path d="M3703 2125 c0 -22 2 -30 4 -17 2 12 2 30 0 40 -3 9 -5 -1 -4 -23z"/>
<path d="M6366 2105 c-9 -26 -7 -32 5 -12 6 10 9 21 6 23 -2 3 -7 -2 -11 -11z"/>
<path d="M7392 2080 c0 -14 2 -19 5 -12 2 6 2 18 0 25 -3 6 -5 1 -5 -13z"/>
<path d="M6346 2045 c-9 -26 -7 -32 5 -12 6 10 9 21 6 23 -2 3 -7 -2 -11 -11z"/>
<path d="M7382 2030 c0 -14 2 -19 5 -12 2 6 2 18 0 25 -3 6 -5 1 -5 -13z"/>
<path d="M6326 1985 c-9 -26 -7 -32 5 -12 6 10 9 21 6 23 -2 3 -7 -2 -11 -11z"/>
<path d="M7372 1960 c0 -14 2 -19 5 -12 2 6 2 18 0 25 -3 6 -5 1 -5 -13z"/>
<path d="M6306 1925 c-3 -9 -6 -22 -5 -28 0 -7 5 -1 10 12 5 13 8 26 5 28 -2
2 -6 -3 -10 -12z"/>
<path d="M6286 1865 c-3 -9 -6 -22 -5 -28 0 -7 5 -1 10 12 5 13 8 26 5 28 -2
2 -6 -3 -10 -12z"/>
<path d="M6266 1805 c-3 -9 -6 -22 -5 -28 0 -7 5 -1 10 12 5 13 8 26 5 28 -2
2 -6 -3 -10 -12z"/>
<path d="M6211 1633 c-1 -6 -4 -20 -7 -30 -5 -17 -5 -17 6 0 6 10 9 23 6 30
-3 9 -5 9 -5 0z"/>
</g>
</svg>
