<?xml version="1.0" standalone="no"?>
<!DOCTYPE svg PUBLIC "-//W3C//DTD SVG 20010904//EN"
 "http://www.w3.org/TR/2001/REC-SVG-20010904/DTD/svg10.dtd">
<svg version="1.0" xmlns="http://www.w3.org/2000/svg"
 width="122.000000pt" height="122.000000pt" viewBox="0 0 122.000000 122.000000"
 preserveAspectRatio="xMidYMid meet">
<metadata>
Created by potrace 1.14, written by Peter Selinger 2001-2017
</metadata>
<g transform="translate(0.000000,122.000000) scale(0.100000,-0.100000)"
fill="#000000" stroke="none">
<path d="M617 984 c-1 -1 -49 -5 -107 -8 -122 -7 -270 -17 -320 -21 -19 -2
-53 -4 -75 -4 l-40 -1 -2 -112 c-1 -62 2 -115 7 -118 5 -3 54 -5 109 -4 l101
2 1 -51 c0 -50 5 -132 13 -247 2 -30 5 -72 5 -92 1 -34 4 -38 40 -48 21 -5 80
-11 132 -12 l94 -3 -1 60 c0 33 -4 138 -8 233 -4 106 -3 172 3 172 5 0 13 -9
16 -20 4 -11 17 -27 29 -36 19 -12 26 -30 35 -92 15 -92 19 -120 25 -147 2
-11 7 -42 10 -70 7 -56 17 -107 22 -116 2 -3 49 6 106 21 113 30 107 22 95
110 -5 29 3 12 20 -45 14 -49 27 -91 28 -92 1 -3 188 36 192 41 2 2 -3 44 -13
92 -37 203 -54 276 -70 309 -14 30 -13 35 12 85 23 47 25 57 15 90 -15 51 -65
97 -123 115 -51 15 -151 13 -208 -4 -43 -14 -40 -14 -40 4 0 12 -11 15 -51 13
-28 -2 -51 -4 -52 -4z m280 -546 c-3 -7 -5 -2 -5 12 0 14 2 19 5 13 2 -7 2
-19 0 -25z"/>
</g>
</svg>
